<svg width="32" height="32" viewBox="0 0 32 32" xmlns="http://www.w3.org/2000/svg" shape-rendering="geometricPrecision">
  <!-- cork -->
  <rect x="12.5" y="2.5" width="7" height="5" rx="1.5" fill="#a06a38" stroke="#5e3a18" stroke-width="1"/>
  <ellipse cx="16" cy="3.3" rx="3.3" ry="1.1" fill="#c89060"/>
  <!-- neck -->
  <path d="M13 7 L13.2 12 Q13.3 13 14.3 13 L17.7 13 Q18.7 13 18.8 12 L19 7 Z" fill="#d2e8ee" stroke="#33403a" stroke-width="1"/>
  <!-- glass body -->
  <circle cx="16" cy="20" r="10" fill="#e2f0f4" stroke="#33403a" stroke-width="1.2"/>
  <!-- liquid clipped to body -->
  <clipPath id="pclip-point">
    <circle cx="16" cy="20" r="9.1"/>
  </clipPath>
  <g clip-path="url(#pclip-point)">
    <rect x="5" y="14.5" width="22" height="22" fill="#e0a818"/>
    <ellipse cx="16" cy="14.5" rx="11" ry="2" fill="#ffd95a"/>
    <!-- sparkle + bubbles -->
    <path d="M16 17 l0.9 2.4 l2.4 0.9 l-2.4 0.9 l-0.9 2.4 l-0.9 -2.4 l-2.4 -0.9 l2.4 -0.9 z" fill="#fff7d0" opacity="0.9"/>
    <circle cx="12" cy="24" r="1.1" fill="#fff2a0" opacity="0.7"/>
    <circle cx="20" cy="23" r="0.9" fill="#fff2a0" opacity="0.6"/>
  </g>
  <!-- glass shine -->
  <path d="M10 14.5 Q7.5 19 9.5 24.5" stroke="#ffffff" stroke-width="2" opacity="0.5" fill="none" stroke-linecap="round"/>
  <circle cx="12.5" cy="15.5" r="1.2" fill="#ffffff" opacity="0.55"/>
</svg>
