<svg width="32" height="32" viewBox="0 0 32 32" xmlns="http://www.w3.org/2000/svg" shape-rendering="geometricPrecision">
  <!-- sack body -->
  <path d="M7 16 Q7 29 16 29 Q25 29 25 16 Q25 11 20 10 L12 10 Q7 11 7 16 Z" fill="#b07b34" stroke="#5e3e14" stroke-width="1.2"/>
  <path d="M10 16 Q10 26 16 26.5" stroke="#caa05a" stroke-width="1.4" fill="none" opacity="0.5"/>
  <!-- tied neck -->
  <path d="M11 10 Q16 6.5 21 10 L19 12.5 Q16 10.5 13 12.5 Z" fill="#caa05a" stroke="#5e3e14" stroke-width="1"/>
  <rect x="14.2" y="5.5" width="3.6" height="4.5" rx="1" fill="#caa05a" stroke="#5e3e14" stroke-width="0.9"/>
  <!-- domino mask -->
  <path d="M8.5 16 Q16 12.5 23.5 16 Q23 19.5 20.5 19.5 Q18.5 19.5 18 17.8 Q16 16.8 14 17.8 Q13.5 19.5 11.5 19.5 Q9 19.5 8.5 16 Z" fill="#241a2e"/>
  <!-- shifty eyes -->
  <ellipse cx="12.4" cy="16.6" rx="1.5" ry="1.1" fill="#ffffff"/>
  <ellipse cx="19.6" cy="16.6" rx="1.5" ry="1.1" fill="#ffffff"/>
  <circle cx="13.1" cy="16.6" r="0.7" fill="#101010"/>
  <circle cx="20.3" cy="16.6" r="0.7" fill="#101010"/>
  <!-- smirk -->
  <path d="M13 23 Q16 25.5 19.5 22.5" stroke="#5e3e14" stroke-width="1.1" fill="none" stroke-linecap="round"/>
  <!-- coin sparkle -->
  <circle cx="22.5" cy="13" r="1" fill="#fff080" opacity="0.85"/>
</svg>
