<svg width="32" height="32" viewBox="0 0 32 32" xmlns="http://www.w3.org/2000/svg" shape-rendering="geometricPrecision">
  <!-- cork -->
  <rect x="12.5" y="2.5" width="7" height="5" rx="1.5" fill="#a06a38" stroke="#5e3a18" stroke-width="1"/>
  <ellipse cx="16" cy="3.3" rx="3.3" ry="1.1" fill="#c89060"/>
  <!-- neck -->
  <path d="M13 7 L13.2 12 Q13.3 13 14.3 13 L17.7 13 Q18.7 13 18.8 12 L19 7 Z" fill="#d2e8ee" stroke="#33403a" stroke-width="1"/>
  <!-- glass body -->
  <circle cx="16" cy="20" r="10" fill="#e2f0f4" stroke="#33403a" stroke-width="1.2"/>
  <!-- liquid clipped to body -->
  <clipPath id="pclip-swap">
    <circle cx="16" cy="20" r="9.1"/>
  </clipPath>
  <g clip-path="url(#pclip-swap)">
    <rect x="5" y="14.5" width="22" height="22" fill="#2f9040"/>
    <ellipse cx="16" cy="14.5" rx="11" ry="2" fill="#5fbf5f"/>
    <!-- swap arrows -->
    <path d="M9 18 H18 V16 L22 19 L18 22 V20 H9 Z" fill="#eafff0" stroke="#1f5a2a" stroke-width="0.5"/>
    <path d="M23 24 H14 V26 L10 23 L14 20 V22 H23 Z" fill="#eafff0" stroke="#1f5a2a" stroke-width="0.5"/>
  </g>
  <!-- glass shine -->
  <path d="M10 14.5 Q7.5 19 9.5 24.5" stroke="#ffffff" stroke-width="2" opacity="0.5" fill="none" stroke-linecap="round"/>
  <circle cx="12.5" cy="15.5" r="1.2" fill="#ffffff" opacity="0.55"/>
</svg>
