<svg width="32" height="32" viewBox="0 0 32 32" xmlns="http://www.w3.org/2000/svg" shape-rendering="geometricPrecision">
  <!-- stand base -->
  <rect x="8" y="27" width="16" height="3" rx="1.5" fill="#7a5018" stroke="#3a2408" stroke-width="1"/>
  <!-- stand arms -->
  <path d="M10.5 27 Q9.5 22.5 12.5 21" stroke="#caa24a" stroke-width="2.2" fill="none" stroke-linecap="round"/>
  <path d="M21.5 27 Q22.5 22.5 19.5 21" stroke="#caa24a" stroke-width="2.2" fill="none" stroke-linecap="round"/>
  <path d="M16 27 L16 21.5" stroke="#caa24a" stroke-width="2.2" stroke-linecap="round"/>
  <!-- orb layers -->
  <circle cx="16" cy="13.5" r="11" fill="#5a86c8" stroke="#2a3a5a" stroke-width="1.2"/>
  <circle cx="16" cy="13.5" r="8.5" fill="#7aa6e0"/>
  <circle cx="16" cy="13.5" r="5" fill="#aacef4"/>
  <!-- inner swirl -->
  <path d="M16 13.5 Q20 11.5 18.5 8.5" stroke="#ffffff" stroke-width="1" fill="none" opacity="0.4"/>
  <!-- sparkle star -->
  <path d="M11.5 8 l0.8 2 l2 0.8 l-2 0.8 l-0.8 2 l-0.8 -2 l-2 -0.8 l2 -0.8 z" fill="#ffffff" opacity="0.85"/>
  <circle cx="21" cy="10.5" r="1" fill="#ffffff" opacity="0.7"/>
  <circle cx="13" cy="18" r="0.8" fill="#ffffff" opacity="0.6"/>
  <!-- highlight -->
  <ellipse cx="11.5" cy="9.5" rx="2.4" ry="3.4" fill="#ffffff" opacity="0.35" transform="rotate(-22 11.5 9.5)"/>
</svg>
